sfk_cyclingleg_states
version=1
nRows=13
nColumns=53
inDegrees=yes

# SIMM Motion File Header:
name sfk_cyclingleg_states
datacolumns 53
datarows 13
otherdata 1
range 0.55916138 0.56490439
endheader
time	/jointset/bb/crank_angle/value	/jointset/bb/crank_angle/speed	/jointset/spindle/pedal_angle_r/value	/jointset/spindle/pedal_angle_r/speed	/jointset/ground_pelvis/pelvis_tilt/value	/jointset/ground_pelvis/pelvis_tilt/speed	/jointset/ground_pelvis/pelvis_list/value	/jointset/ground_pelvis/pelvis_list/speed	/jointset/ground_pelvis/pelvis_rotation/value	/jointset/ground_pelvis/pelvis_rotation/speed	/jointset/ground_pelvis/pelvis_tx/value	/jointset/ground_pelvis/pelvis_tx/speed	/jointset/ground_pelvis/pelvis_ty/value	/jointset/ground_pelvis/pelvis_ty/speed	/jointset/ground_pelvis/pelvis_tz/value	/jointset/ground_pelvis/pelvis_tz/speed	/jointset/hip_r/hip_angle_r/value	/jointset/hip_r/hip_angle_r/speed	/jointset/hip_r/hip_adduction_r/value	/jointset/hip_r/hip_adduction_r/speed	/jointset/hip_r/hip_rotation_r/value	/jointset/hip_r/hip_rotation_r/speed	/jointset/knee_r/knee_angle_r/value	/jointset/knee_r/knee_angle_r/speed	/jointset/knee_r/tib_tx_r/value	/jointset/knee_r/tib_tx_r/speed	/jointset/knee_r/tib_ty_r/value	/jointset/knee_r/tib_ty_r/speed	/jointset/tib_pat_r/pat_angle_r/value	/jointset/tib_pat_r/pat_angle_r/speed	/jointset/tib_pat_r/pat_tx_r/value	/jointset/tib_pat_r/pat_tx_r/speed	/jointset/tib_pat_r/pat_ty_r/value	/jointset/tib_pat_r/pat_ty_r/speed	/jointset/ankle_r/ankle_angle_r/value	/jointset/ankle_r/ankle_angle_r/speed	/jointset/subtalar_r/subtalar_angle_r/value	/jointset/subtalar_r/subtalar_angle_r/speed	/jointset/mtp_r/mtp_angle_r/value	/jointset/mtp_r/mtp_angle_r/speed	/forceset/bifemlh_r/activation	/forceset/bifemlh_r/fiber_length	/forceset/bifemsh_r/activation	/forceset/bifemsh_r/fiber_length	/forceset/glut_max2_r/activation	/forceset/glut_max2_r/fiber_length	/forceset/vas_int_r/activation	/forceset/vas_int_r/fiber_length	/forceset/med_gas_r/activation	/forceset/med_gas_r/fiber_length	/forceset/tib_ant_r/activation	/forceset/tib_ant_r/fiber_length
      0.55916138	   -278.60985967	   -480.13863232	    250.99091827	    441.46813195	      0.00000000	     -0.00000000	     -0.00000000	     -0.00000000	      0.00000000	      0.00000000	     -0.00000000	     -0.00000000	      0.00000000	      0.00000000	     -0.00000000	     -0.00000000	     53.63532648	    144.04099198	      4.17243345	     -2.12037055	     -2.88153384	    -20.81580055	   -105.77455105	   -231.74372994	      0.00075114	     -0.05957422	     -0.49137160	     -0.07855097	     17.62900856	      0.81180413	      0.02624388	     -0.10327148	     -0.02353035	     -0.01543922	     25.13374052	     50.69857565	     -0.00000000	     -0.00000000	     -0.00000000	      0.00000000	     -0.08666226	      0.11372018	     -0.08666226	      0.14697563	     -0.08666226	      0.13983874	     -0.08666226	      0.15637027	     -0.01467023	      0.14848676	     -0.01467023	      0.11600457
      0.55967125	   -278.85466652	   -480.13863232	    251.21623252	    442.34783006	      0.00000000	     -0.00000000	     -0.00000000	     -0.00000000	      0.00000000	      0.00000000	     -0.00000000	     -0.00000000	      0.00000000	      0.00000000	     -0.00000000	     -0.00000000	     53.70883206	    144.29129865	      4.17135246	     -2.11987775	     -2.89214323	    -20.80044457	   -105.89258210	   -231.24331210	      0.00072074	     -0.05966856	     -0.49141160	     -0.07835008	     17.62942074	      0.80502941	      0.02619125	     -0.10316780	     -0.02353823	     -0.01544731	     25.15962333	     50.82888413	     -0.00000000	     -0.00000000	     -0.00000000	      0.00000000	     -0.08672790	      0.11378318	     -0.08672790	      0.14694906	     -0.08672790	      0.13988816	     -0.08672790	      0.15637652	     -0.01467023	      0.14848676	     -0.01467023	      0.11600457
      0.56004414	   -279.03370639	   -480.13863232	    251.38130059	    442.99203091	      0.00000000	     -0.00000000	     -0.00000000	     -0.00000000	      0.00000000	      0.00000000	     -0.00000000	     -0.00000000	      0.00000000	      0.00000000	     -0.00000000	     -0.00000000	     53.76267121	    144.47399692	      4.17056205	     -2.11946462	     -2.89989743	    -20.78901750	   -105.97874232	   -230.87527179	      0.00069848	     -0.05973621	     -0.49144079	     -0.07820243	     17.62972000	      0.80003938	      0.02615279	     -0.10309066	     -0.02354399	     -0.01545282	     25.17859464	     50.92329933	     -0.00000000	     -0.00000000	     -0.00000000	      0.00000000	     -0.08677591	      0.11382946	     -0.08677591	      0.14692976	     -0.08677591	      0.13992433	     -0.08677591	      0.15640461	     -0.01467023	      0.14848676	     -0.01467023	      0.11600457
      0.56053711	   -279.27039926	   -480.13863232	    251.59989151	    443.84473602	      0.00000000	     -0.00000000	     -0.00000000	     -0.00000000	      0.00000000	      0.00000000	     -0.00000000	     -0.00000000	      0.00000000	      0.00000000	     -0.00000000	     -0.00000000	     53.83395167	    144.71504712	      4.16951737	     -2.11884992	     -2.91014197	    -20.77365368	   -106.09243593	   -230.38604442	      0.00066901	     -0.05982388	     -0.49147929	     -0.07800628	     17.63011276	      0.79339756	      0.02610200	     -0.10298696	     -0.02355161	     -0.01545959	     25.20372872	     51.04695615	     -0.00000000	     -0.00000000	     -0.00000000	      0.00000000	     -0.08683938	      0.11389088	     -0.08683938	      0.14690441	     -0.08683938	      0.13997219	     -0.08683938	      0.15651774	     -0.01467023	      0.14848676	     -0.01467023	      0.11600457
      0.56103008	   -279.50709213	   -480.13863232	    251.81890308	    444.69863496	      0.00000000	     -0.00000000	     -0.00000000	     -0.00000000	      0.00000000	      0.00000000	     -0.00000000	     -0.00000000	      0.00000000	      0.00000000	     -0.00000000	     -0.00000000	     53.90535083	    144.95554355	      4.16847302	     -2.11815699	     -2.92037886	    -20.75799448	   -106.20588761	   -229.89376843	      0.00063950	     -0.05990955	     -0.49151770	     -0.07780905	     17.63050223	      0.78670558	      0.02605126	     -0.10288130	     -0.02355923	     -0.01546576	     25.22892343	     51.16927689	     -0.00000000	     -0.00000000	     -0.00000000	     -0.00000000	     -0.08690285	      0.11395258	     -0.08690285	      0.14687926	     -0.08690285	      0.14002009	     -0.08690285	      0.15652505	     -0.01467023	      0.14848676	     -0.01467023	      0.11600457
      0.56136308	   -279.66697813	   -480.13863232	    251.96708371	    445.27610948	      0.00000000	     -0.00000000	     -0.00000000	     -0.00000000	      0.00000000	      0.00000000	     -0.00000000	     -0.00000000	      0.00000000	      0.00000000	     -0.00000000	     -0.00000000	     53.95364798	    145.11768091	      4.16776776	     -2.11764454	     -2.92728948	    -20.74724808	   -106.28238654	   -229.55950853	      0.00061954	     -0.05996627	     -0.49154359	     -0.07767521	     17.63076345	      0.78215731	      0.02601701	     -0.10280881	     -0.02356438	     -0.01546959	     25.24597643	     51.25114082	     -0.00000000	     -0.00000000	     -0.00000000	      0.00000000	     -0.08694572	      0.11399442	     -0.08694572	      0.14686238	     -0.08694572	      0.14005247	     -0.08694572	      0.15655052	     -0.01467023	      0.14848676	     -0.01467023	      0.11600457
      0.56199294	   -279.96940230	   -480.13863232	    252.24789343	    446.36984615	      0.00000000	     -0.00000000	     -0.00000000	     -0.00000000	      0.00000000	      0.00000000	     -0.00000000	     -0.00000000	      0.00000000	      0.00000000	     -0.00000000	     -0.00000000	     54.04514944	    145.42365120	      4.16643425	     -2.11657716	     -2.94035102	    -20.72654593	   -106.42677877	   -228.92344155	      0.00058174	     -0.06007102	     -0.49159243	     -0.07742072	     17.63125338	      0.77349425	      0.02595230	     -0.10266924	     -0.02357413	     -0.01547609	     25.27830625	     51.40428369	     -0.00000000	     -0.00000000	     -0.00000000	     -0.00000000	     -0.08702682	      0.11407392	     -0.08702682	      0.14683069	     -0.08702682	      0.14011376	     -0.08702682	      0.15668970	     -0.01467023	      0.14848676	     -0.01467023	      0.11600457
      0.56262281	   -280.27182648	   -480.13863232	    252.52939266	    447.46543791	      0.00000000	     -0.00000000	     -0.00000000	     -0.00000000	      0.00000000	      0.00000000	     -0.00000000	     -0.00000000	      0.00000000	      0.00000000	     -0.00000000	     -0.00000000	     54.13684332	    145.72867325	      4.16510145	     -2.11538109	     -2.95339937	    -20.70534757	   -106.57076879	   -228.28237560	      0.00054387	     -0.06017243	     -0.49164112	     -0.07716448	     17.63173783	      0.76475460	      0.02588767	     -0.10252643	     -0.02358388	     -0.01548162	     25.31073183	     51.55517207	     -0.00000000	     -0.00000000	     -0.00000000	     -0.00000000	     -0.08710791	      0.11415387	     -0.08710791	      0.14679933	     -0.08710791	      0.14017512	     -0.08710791	      0.15669988	     -0.01467023	      0.14848676	     -0.01467023	      0.11600457
      0.56301542	   -280.46033426	   -480.13863232	    252.70520680	    448.14926508	      0.00000000	     -0.00000000	     -0.00000000	     -0.00000000	      0.00000000	      0.00000000	     -0.00000000	     -0.00000000	      0.00000000	      0.00000000	     -0.00000000	     -0.00000000	     54.19409526	    145.91831197	      4.16427109	     -2.11457029	     -2.96152588	    -20.69188042	   -106.66031613	   -227.88025151	      0.00052023	     -0.06023394	     -0.49167138	     -0.07700387	     17.63203701	      0.75926925	      0.02584744	     -0.10243576	     -0.02358996	     -0.01548457	     25.33099123	     51.64806940	     -0.00000000	     -0.00000000	     -0.00000000	      0.00000000	     -0.08715846	      0.11420393	     -0.08715846	      0.14677993	     -0.08715846	      0.14021340	     -0.08715846	      0.15672956	     -0.01467023	      0.14848676	     -0.01467023	      0.11600457
      0.56348620	   -280.68636973	   -480.13863232	    252.91637578	    448.97014164	      0.00000000	     -0.00000000	     -0.00000000	     -0.00000000	      0.00000000	      0.00000000	     -0.00000000	     -0.00000000	      0.00000000	      0.00000000	     -0.00000000	     -0.00000000	     54.26284284	    146.14520101	      4.16327585	     -2.11353184	     -2.97126317	    -20.67547286	   -106.76748161	   -227.39550476	      0.00049186	     -0.06030597	     -0.49170759	     -0.07681041	     17.63239290	      0.75265462	      0.02579924	     -0.10232537	     -0.02359725	     -0.01548762	     25.35533165	     51.75827822	     -0.00000000	     -0.00000000	     -0.00000000	     -0.00000000	     -0.08721908	      0.11426419	     -0.08721908	      0.14675684	     -0.08721908	      0.14025934	     -0.08721908	      0.15684027	     -0.01467023	      0.14848676	     -0.01467023	      0.11600457
      0.56395697	   -280.91240520	   -480.13863232	    253.12793143	    449.79199897	      0.00000000	     -0.00000000	     -0.00000000	     -0.00000000	      0.00000000	      0.00000000	     -0.00000000	     -0.00000000	      0.00000000	      0.00000000	     -0.00000000	     -0.00000000	     54.33169709	    146.37153415	      4.16228112	     -2.11242101	     -2.98099267	    -20.65878000	   -106.87441822	   -226.90795305	      0.00046345	     -0.06037610	     -0.49174370	     -0.07661597	     17.63274566	      0.74600027	      0.02575110	     -0.10221315	     -0.02360454	     -0.01549012	     25.37972364	     51.86718494	     -0.00000000	     -0.00000000	     -0.00000000	     -0.00000000	     -0.08727969	      0.11432470	     -0.08727969	      0.14673392	     -0.08727969	      0.14030531	     -0.08727969	      0.15684558	     -0.01467023	      0.14848676	     -0.01467023	      0.11600457
      0.56431742	   -281.08547347	   -480.13863232	    253.29017463	    450.42192120	      0.00000000	     -0.00000000	     -0.00000000	     -0.00000000	      0.00000000	      0.00000000	     -0.00000000	     -0.00000000	      0.00000000	      0.00000000	     -0.00000000	     -0.00000000	     54.38448859	    146.54444932	      4.16151985	     -2.11152146	     -2.98843690	    -20.64580434	   -106.95614071	   -226.53275154	      0.00044168	     -0.06042851	     -0.49177129	     -0.07646644	     17.63301364	      0.74087900	      0.02571427	     -0.10212599	     -0.02361012	     -0.01549167	     25.39843431	     51.94968275	     -0.00000000	     -0.00000000	     -0.00000000	     -0.00000000	     -0.08732610	      0.11437120	     -0.08732610	      0.14671649	     -0.08732610	      0.14034053	     -0.08732610	      0.15687092	     -0.01467023	      0.14848676	     -0.01467023	      0.11600457
      0.56490439	   -281.36730161	   -480.13863232	    253.55486120	    451.44888732	      0.00000000	     -0.00000000	     -0.00000000	     -0.00000000	      0.00000000	      0.00000000	     -0.00000000	     -0.00000000	      0.00000000	      0.00000000	     -0.00000000	     -0.00000000	     54.47058861	    146.82531017	      4.16028089	     -2.10996546	     -3.00054913	    -20.62431028	   -107.08892905	   -225.91823676	      0.00040618	     -0.06051145	     -0.49181610	     -0.07622174	     17.63344605	      0.73249193	      0.02565436	     -0.10198173	     -0.02361922	     -0.01549351	     25.42896638	     52.08235739	     -0.00000000	     -0.00000000	     -0.00000000	     -0.00000000	     -0.08740167	      0.11444723	     -0.08740167	      0.14668833	     -0.08740167	      0.14039793	     -0.08740167	      0.15699460	     -0.01467023	      0.14848676	     -0.01467023	      0.11600457
